/* XPM */
const char * hd24connect_xpm[] = {
"64 64 288 2",
"  	c None",
". 	c #3B412D",
"+ 	c #343913",
"@ 	c #272E1D",
"# 	c #0C161A",
"$ 	c #10191D",
"% 	c #303437",
"& 	c #323A3E",
"* 	c #1C1C1C",
"= 	c #000000",
"- 	c #42161A",
"; 	c #121415",
"> 	c #4B1215",
", 	c #0F1011",
"' 	c #0C0D0E",
") 	c #070708",
"! 	c #040506",
"~ 	c #08090A",
"{ 	c #0A0C0C",
"] 	c #020203",
"^ 	c #060809",
"/ 	c #FAFAFA",
"( 	c #FEFEFE",
"_ 	c #C5C7C8",
": 	c #6D6E6F",
"< 	c #4D4F50",
"[ 	c #828384",
"} 	c #FCFDFD",
"| 	c #F0F2F2",
"1 	c #CCCFD0",
"2 	c #8E9091",
"3 	c #292A2A",
"4 	c #222222",
"5 	c #FBFBFC",
"6 	c #FFFFFF",
"7 	c #C6C8C8",
"8 	c #6E6F70",
"9 	c #4E4F50",
"0 	c #252626",
"a 	c #D1D2D3",
"b 	c #F7F7F7",
"c 	c #444546",
"d 	c #16191B",
"e 	c #222728",
"f 	c #1D2122",
"g 	c #040505",
"h 	c #393A3B",
"i 	c #656767",
"j 	c #7B7C7D",
"k 	c #858686",
"l 	c #868686",
"m 	c #888989",
"n 	c #F7F8F8",
"o 	c #A8AAAA",
"p 	c #050606",
"q 	c #EEF0F0",
"r 	c #AEAEAE",
"s 	c #C8CACB",
"t 	c #080A0A",
"u 	c #737475",
"v 	c #070808",
"w 	c #0D0E10",
"x 	c #030404",
"y 	c #010101",
"z 	c #141516",
"A 	c #131516",
"B 	c #FCFCFC",
"C 	c #868889",
"D 	c #FAFAFB",
"E 	c #383B3C",
"F 	c #090A0A",
"G 	c #262829",
"H 	c #898A8B",
"I 	c #393C3C",
"J 	c #28292A",
"K 	c #E4E5E5",
"L 	c #848586",
"M 	c #BFC1C1",
"N 	c #050506",
"O 	c #2B3235",
"P 	c #212629",
"Q 	c #262A2D",
"R 	c #161617",
"S 	c #7A7C7D",
"T 	c #060606",
"U 	c #424546",
"V 	c #101212",
"W 	c #EFF1F1",
"X 	c #352427",
"Y 	c #F9FAFA",
"Z 	c #F8F8F8",
"` 	c #868888",
" .	c #020202",
"..	c #ECEDEE",
"+.	c #949696",
"@.	c #0A0B0B",
"#.	c #232323",
"$.	c #727374",
"%.	c #747575",
"&.	c #5A5C5C",
"*.	c #38393A",
"=.	c #727373",
"-.	c #212223",
";.	c #3E3F40",
">.	c #707172",
",.	c #5C5C5D",
"'.	c #353637",
").	c #464A4B",
"!.	c #202223",
"~.	c #343637",
"{.	c #191A1B",
"].	c #423135",
"^.	c #1C1D1E",
"/.	c #1A1D1E",
"(.	c #3C3F41",
"_.	c #212A2D",
":.	c #414146",
"<.	c #35312B",
"[.	c #282E20",
"}.	c #2F2B26",
"|.	c #394246",
"1.	c #333739",
"2.	c #373539",
"3.	c #3D4044",
"4.	c #151A19",
"5.	c #161819",
"6.	c #020303",
"7.	c #44171A",
"8.	c #24292C",
"9.	c #1F2427",
"0.	c #151819",
"a.	c #4A4E50",
"b.	c #252728",
"c.	c #040606",
"d.	c #0A0A0B",
"e.	c #0A0B0C",
"f.	c #0D0E0E",
"g.	c #030304",
"h.	c #000101",
"i.	c #343434",
"j.	c #242526",
"k.	c #989A9B",
"l.	c #D4D6D7",
"m.	c #EDEEEE",
"n.	c #F2F3F3",
"o.	c #F3F4F4",
"p.	c #E9EAEB",
"q.	c #CCCECF",
"r.	c #949697",
"s.	c #363738",
"t.	c #040404",
"u.	c #212424",
"v.	c #F1F2F2",
"w.	c #E8EAEA",
"x.	c #BEC0C2",
"y.	c #101010",
"z.	c #050607",
"A.	c #C6C9CA",
"B.	c #DADADB",
"C.	c #797B7C",
"D.	c #272829",
"E.	c #DEDFDF",
"F.	c #0A0A0A",
"G.	c #2D3033",
"H.	c #F4F4F5",
"I.	c #D0D2D3",
"J.	c #121313",
"K.	c #949596",
"L.	c #D5D6D7",
"M.	c #F5F6F6",
"N.	c #101112",
"O.	c #AEB0B1",
"P.	c #595A5C",
"Q.	c #343739",
"R.	c #303537",
"S.	c #131414",
"T.	c #9B9D9E",
"U.	c #FAFCFC",
"V.	c #161618",
"W.	c #3C3E3E",
"X.	c #C1C2C3",
"Y.	c #F0F1F2",
"Z.	c #A0A2A4",
"`.	c #B0B1B2",
" +	c #434646",
".+	c #121314",
"++	c #EFF0F1",
"@+	c #030303",
"#+	c #454647",
"$+	c #959798",
"%+	c #E6E7E8",
"&+	c #F2F4F4",
"*+	c #FAFBFB",
"=+	c #E7E8E9",
"-+	c #2A2C2D",
";+	c #ADAFB0",
">+	c #FEFEFF",
",+	c #FDFEFE",
"'+	c #C8C9CA",
")+	c #151616",
"!+	c #C7C8C9",
"~+	c #D1D2D2",
"{+	c #999A9A",
"]+	c #98999A",
"^+	c #87898A",
"/+	c #656667",
"(+	c #2C2D2E",
"_+	c #333435",
":+	c #646666",
"<+	c #818282",
"[+	c #8F9192",
"}+	c #939495",
"|+	c #959697",
"1+	c #F8F9F9",
"2+	c #242626",
"3+	c #8C8D8E",
"4+	c #8F9091",
"5+	c #0B0C0C",
"6+	c #2C3032",
"7+	c #1D1F20",
"8+	c #131415",
"9+	c #F4F4F4",
"0+	c #ECEEEE",
"a+	c #E8EAEB",
"b+	c #161818",
"c+	c #1E1F20",
"d+	c #2F2F2F",
"e+	c #545556",
"f+	c #D0D1D2",
"g+	c #161718",
"h+	c #252627",
"i+	c #545656",
"j+	c #727474",
"k+	c #838484",
"l+	c #7A7C7C",
"m+	c #6B6D6D",
"n+	c #2B2E31",
"o+	c #060707",
"p+	c #2A2E32",
"q+	c #1F2426",
"r+	c #212425",
"s+	c #101213",
"t+	c #0E1010",
"u+	c #222425",
"v+	c #303233",
"w+	c #585D5E",
"x+	c #2C2C2C",
"y+	c #0B0B0B",
"z+	c #262626",
"A+	c #242424",
"B+	c #202020",
"C+	c #191919",
"D+	c #303030",
"E+	c #1B1B1B",
"F+	c #212121",
"G+	c #171717",
"H+	c #292929",
"I+	c #080808",
"J+	c #090909",
"K+	c #0E0E0E",
"L+	c #070707",
"M+	c #050505",
"N+	c #121212",
"O+	c #272727",
"P+	c #3D3D3D",
"Q+	c #282828",
"R+	c #0D0D0D",
"S+	c #181818",
"T+	c #252525",
"U+	c #323232",
"V+	c #2E2E2E",
"W+	c #3C3C3C",
"X+	c #1F1F1F",
"Y+	c #111111",
"Z+	c #2B2B2B",
"`+	c #1E1E1E",
" @	c #141414",
".@	c #626262",
"+@	c #161616",
"@@	c #5E5E5E",
"#@	c #414141",
"$@	c #131313",
"%@	c #1A1A1A",
"&@	c #0F0F0F",
"*@	c #393939",
"=@	c #383838",
"-@	c #565656",
";@	c #3A3A3A",
"                                                                                                                                ",
"                                                                                                                                ",
"                                                                                                                                ",
"                                                                                                                                ",
"                                                                                                                                ",
"                                                                                                                                ",
"                                                                                                                                ",
"                                                                                                                                ",
". + + + + + + + + + + +                   + + + + + + + @ # # # # # # # # # # # $ + + + + + + + + + + + + + + + % &             ",
"* = = = = = = = = = = = -                 = = = = = = = = = = = = = = = = = = = = = = = = = = = = = = = = = = = = = = = ; >     ",
"* = = , , , , , , ' = = -                 = = ) , , , , , , ! = = = ~ , , , , , , , , , , , , , , , , , , , , , { ] = = = = ,   ",
"* = ^ / ( ( ( ( ( _ = = -                 = = : ( ( ( ( ( ( < = = = [ ( ( ( ( ( ( ( ( ( ( ( ( ( ( ( ( ( ( ( ( ( } | 1 2 3 = = 4 ",
"* = ^ 5 6 6 6 6 6 7 = = -                 = = 8 6 6 6 6 6 6 9 = = = 0 a 6 6 6 6 6 6 6 6 6 6 6 6 6 6 6 6 6 6 6 6 6 6 6 6 b c = = ",
"* = ^ 5 6 6 6 6 6 7 = = d e e e e e e e f = = 8 6 6 6 6 6 6 9 = = = = g h i j k l l l l l l l l l l l l l l m n 6 6 6 6 6 o = = ",
"* = ^ 5 6 6 6 6 6 7 = = = = = = = = = = = = = 8 6 6 6 6 6 6 9 = = = = = = = = = = = = = = = = = = = = = = = p q 6 6 6 6 6 r = = ",
"* = ^ 5 6 6 6 6 6 s t t t t t t t t t t t t t u 6 6 6 6 6 6 9 = = = v w w w w w w x = y ; z z z z z z A x = p q 6 6 6 6 6 r = = ",
"* = ^ 5 6 6 6 6 6 ( / / / / / / / / / / / / / B 6 6 6 6 6 6 9 = = = C D D D D D D E = F                 G = p q 6 6 6 6 6 r = = ",
"* = ^ 5 6 6 6 6 6 6 6 6 6 6 6 6 6 6 6 6 6 6 6 6 6 6 6 6 6 6 9 = = = H 6 6 6 6 6 6 I = F                 J = p q 6 6 6 6 6 r = = ",
"* = ^ 5 6 6 6 6 6 K L L L L L L L L L L L L L M 6 6 6 6 6 6 9 = = = H 6 6 6 6 6 6 I = N O P P P P P P Q R = p q 6 6 6 6 6 r = = ",
"* = ^ 5 6 6 6 6 6 7 = = = = = = = = = = = = = S 6 6 6 6 6 6 9 = = = H 6 6 6 6 6 6 I = = = = = = = = = = = = p q 6 6 6 6 6 r = = ",
"* = ^ 5 6 6 6 6 6 7 = = T ' ' ' ' ' ' ' ~ = = S 6 6 6 6 6 6 9 = = = H 6 6 6 6 6 6 U ' ' ' ' ' ' ' ' ' ' ' ' V W 6 6 6 6 6 r = = ",
"* = ^ 5 6 6 6 6 6 7 = = X                 = = S 6 6 6 6 6 6 9 = = = H 6 6 6 6 6 6 Y Z Z Z Z Z Z Z Z Z Z Z Z Z ( 6 6 6 6 6 ` =  .",
"* = ^ 5 6 6 6 6 6 7 = = -                 = = S 6 6 6 6 6 6 9 = = = H 6 6 6 6 6 6 6 6 6 6 6 6 6 6 6 6 6 6 6 6 6 6 6 6 ..+.@.= #.",
"* = x $.%.%.%.%.%.&.= = -                 = = *.%.%.%.%.%.=.-.= = = ;.%.%.%.%.%.%.%.%.%.%.%.%.%.%.%.%.%.%.%.%.%.>.,.'.F = =  .).",
"* = = = = = = = = = = = -                 = = = = = = = = = = = = = = = = = = = = = = = = = = = = = = = = = = = = = = = = !.    ",
"~.{.{.{.{.{.{.{.{.{.{.{.].                {.{.{.{.{.{.{.{.{.{.{.{.{.{.{.{.{.{.{.{.{.{.{.{.{.{.{.{.{.{.{.{.{.{.{.^./.(._.        ",
"                                                                                                                                ",
"            :.<.[.[.[.[.[.[.[.[.[.[.[.[.[.[.[.[.}.|.                1.1.1.1.1.2.3.                    1.1.1.1.1.1.1.1.1.1.1.    ",
"    4.5. .= = = = = = = = = = = = = = = = = = = = = = 6.5.7.      8.= = = = = = = = = p 9.          0.= = = = = = = = = = = a.  ",
"  b.= = = = c.d.e.e.e.e.e.e.e.e.e.e.e.e.e.e.e.e.F x = = = = f.    g = g.e.e.e.v x = = = h.          0.= = e.e.e.e.e.e.~ = = a.  ",
"i.= = j.k.l.m.n.o.o.o.o.o.o.o.o.o.o.o.o.o.o.o.o.n.p.q.r.s.= = t.u.= = C o.o.o.v.w.x.y.= z.          0.= T w.o.o.o.o.o.A.= = a.  ",
" .= N B.6 6 6 6 6 6 6 6 6 6 6 6 6 6 6 6 6 6 6 6 6 6 6 6 / C.= = = = D.o.6 6 6 6 6 E.F.= G.          0.= T H.6 6 6 6 6 I.= = a.  ",
"= = J.K.+.+.+.+.+.+.+.+.+.+.+.+.+.+.+.+.+.+.+.L.6 6 6 6 6 M.N.= = y O.6 6 6 6 6 ( P.= = Q.R.R.R.R.R.S.= T H.6 6 6 6 6 I.= = a.  ",
"= = = = = = = = = = = = = = = = = = = = = = = T.6 6 6 6 6 U.V.= = W.} 6 6 6 6 6 X.g.= = = = = = = = = = T Y.6 6 6 6 6 I.= = a.  ",
"= = = = = = = x e.f.f.f.f.f.f.f.f.f.f.f.f.f.f.Z.6 6 6 6 6 U.V.= y `.6 6 6 6 6 B  +f.f.f.f.f.f.f.f.f.f.f..+++6 6 6 6 6 I.= = a.  ",
"= = = @+#+$+s %+| &+&+&+&+&+&+&+&+&+&+&+&+&+&+*+6 6 6 6 6 =+e.= -+B 6 6 6 6 6 ( o.&+&+&+&+&+&+&+&+&+&+&+o.( 6 6 6 6 6 I.= = a.  ",
"= = ] ;+>+6 6 6 6 6 6 6 6 6 6 6 6 6 6 6 6 6 6 6 6 6 6 ,+'+W.= = )+!+( 6 6 6 6 6 6 6 6 6 6 6 6 6 6 6 6 6 6 6 6 6 6 6 6 I.= = a.  ",
"= = !.( 6 6 6 6 6 ~+{+{+{+{+{+{+{+{+{+{+{+{+{+{+]+^+/+(+@+= = = = g _+:+<+[+}+}+}+}+}+}+}+}+}+}+}+}+}+}+|+1+6 6 6 6 6 I.= = a.  ",
"= = 2+( 6 6 6 6 6 3+= = = = = = = = = = = = = = = = = = = = = = = = = = = = = = = = = = = = = = = = = = p q 6 6 6 6 6 I.= = a.  ",
"= = 2+( 6 6 6 6 6 4+v v v v v v v v v v v v v v v v v v v v y = 5+6+7+8+5+p ! ! ! ! ! ! ! ! ! ! ! ! y = p q 6 6 6 6 6 I.= = a.  ",
"= = , 9+6 6 6 6 6 b 0+0+0+0+0+0+0+0+0+0+0+0+0+0+0+0+0+0+0+a+z = b+                                  c+= p q 6 6 6 6 6 I.= = a.  ",
"d+= = e+f+} 6 6 6 6 6 6 6 6 6 6 6 6 6 6 6 6 6 6 6 6 6 6 6 U.V.= b+                                  -.= p q 6 6 6 6 6 I.= = a.  ",
"  g+= = ] h+i+j+<+k+k+k+k+k+k+k+k+k+k+k+k+k+k+k+k+k+k+k+k+<+5+= b+                                  -.= @+l+k+k+k+k+k+m+= = a.  ",
"    n+o+= = = = = = = = = = = = = = = = = = = = = = = = = = = = b+                                  -.= = = = = = = = = = = a.  ",
"        p+q+r+s+y.t+t+t+t+t+t+t+t+t+t+t+t+t+t+t+t+t+t+t+t+t+t+t+u+                                  v+t+t+t+t+t+t+t+t+t+t+t+w+  ",
"                                                                                                                                ",
"                                                                                                                                ",
"                                                                                                                                ",
"        x+y+z+          A+B+C+d+                                                                    D+E+F+G+                    ",
"    H+= y I+J+=       K+= L+L+= y+      = = M+      = N+    = = K+      = O+    = = = = = =     K+T = J+T  .P+  = = = = = = = = ",
"  Q+= R+            S+= T+    U+= y.    = = = z+    = N+    = = = V+    = O+    = R+            M+y W+              y.= =       ",
"  X+= H+            = I+        K+=     = = X+T     = N+    = t.E+Y+    = O+    = K+          Z+= `+                F.= =       ",
"  t.=               =  @        `+=     = = .@T +@  = N+    = T @@y #@  = O+    = = = = = =   $@= +@                F.= =       ",
"  y+=               = %@        O+=     = =   H+t.B+= N+    = T   #.y+F+= O+    = T = = =     Y+= U+                F.= =       ",
"  U+= x+             . .        M+=     = =     L+L+= N+    = T      .L+= O+    = &@          *@= y.                F.= =       ",
"    @+ .Z+    4     4 = X+    O+= H+    = =     =@= = N+    = T     +@= = O+    = L+            C+= O+    * -@      F.= =       ",
"      N+= = = T       `+ .= =  .R+      = =       y+= N+    = T       @+= O+    = = = = = `+      H+ .= =  .;@      N+T F.      ",
"                                                                                                                                ",
"                                                                                                                                ",
"                                                                                                                                ",
"                                                                                                                                ",
"                                                                                                                                ",
"                                                                                                                                ",
"                                                                                                                                "};
